0
SECTION
2
HEADER
9
$INSUNITS
70
4
9
$ACADVER
1
AC1014
9
$HANDSEED
5
FFFF
0
ENDSEC
0
SECTION
2
TABLES
0
TABLE
2
VPORT
5
8
100
AcDbSymbolTable
0
ENDTAB
0
TABLE
2
LTYPE
5
5
100
AcDbSymbolTable
0
LTYPE
5
14
100
AcDbSymbolTableRecord
100
AcDbLinetypeTableRecord
2
BYBLOCK
70
0
0
LTYPE
5
15
100
AcDbSymbolTableRecord
100
AcDbLinetypeTableRecord
2
BYLAYER
70
0
0
ENDTAB
0
TABLE
2
LAYER
5
2
100
AcDbSymbolTable
70
2
0
LAYER
5
50
100
AcDbSymbolTableRecord
100
AcDbLayerTableRecord
2
0
70
0
6
CONTINUOUS
0
ENDTAB
0
TABLE
2
STYLE
5
3
100
AcDbSymbolTable
70
1
0
STYLE
5
11
100
AcDbSymbolTableRecord
100
AcDbTextStyleTableRecord
2
STANDARD
70
0
0
ENDTAB
0
TABLE
2
VIEW
5
6
100
AcDbSymbolTable
70
0
0
ENDTAB
0
TABLE
2
UCS
5
7
100
AcDbSymbolTable
70
0
0
ENDTAB
0
TABLE
2
APPID
5
9
100
AcDbSymbolTable
70
2
0
APPID
5
12
100
AcDbSymbolTableRecord
100
AcDbRegAppTableRecord
2
ACAD
70
0
0
ENDTAB
0
TABLE
2
DIMSTYLE
5
A
100
AcDbSymbolTable
70
1
0
ENDTAB
0
TABLE
2
BLOCK_RECORD
5
1
100
AcDbSymbolTable
70
1
0
BLOCK_RECORD
5
1F
100
AcDbSymbolTableRecord
100
AcDbBlockTableRecord
2
*MODEL_SPACE
0
BLOCK_RECORD
5
1B
100
AcDbSymbolTableRecord
100
AcDbBlockTableRecord
2
*PAPER_SPACE
0
ENDTAB
0
ENDSEC
0
SECTION
2
BLOCKS
0
BLOCK
5
20
100
AcDbEntity
100
AcDbBlockBegin
2
*MODEL_SPACE
0
ENDBLK
5
21
100
AcDbEntity
100
AcDbBlockEnd
0
BLOCK
5
1C
100
AcDbEntity
100
AcDbBlockBegin
2
*PAPER_SPACE
0
ENDBLK
5
1D
100
AcDbEntity
100
AcDbBlockEnd
0
ENDSEC
0
SECTION
2
ENTITIES
0
LINE
5
100
100
AcDbEntity
8
0
100
AcDbLine
10
83.999999999999986
20
218
30
0
11
-1.0000000000000033
21
218
31
0
0
LINE
5
101
100
AcDbEntity
8
0
100
AcDbLine
10
-1.0000000000000033
20
218
30
0
11
-1.0000000000000053
21
173
31
0
0
LINE
5
102
100
AcDbEntity
8
0
100
AcDbLine
10
-1.0000000000000053
20
173
30
0
11
53.999999999999993
21
173
31
0
0
ARC
5
103
100
AcDbEntity
8
0
100
AcDbCircle
10
59.000000000002814
20
10.908712114636083
30
0
40
60.000000000002814
210
0
220
0
230
1
100
AcDbArc
50
139.3435877443136
51
190.47531384322929
0
ARC
5
104
100
AcDbEntity
8
0
100
AcDbCircle
10
-115.29296330037926
20
160.59377169431571
30
0
40
169.74693494669145
210
0
220
0
230
1
100
AcDbArc
50
-40.656412255686341
51
4.1912914507800378
0
LINE
5
105
100
AcDbEntity
8
0
100
AcDbLine
10
0
20
0
30
0
11
84
21
5.1435165591562251e-15
31
0
0
LWPOLYLINE
5
106
100
AcDbEntity
8
0
100
AcDbPolyline
90
4
70
1
43
0.0
10
184.00000000000003
20
170.00000000000003
10
94
20
170.00000000000003
10
93.999999999999986
20
4.1744385756538043e-15
10
184.00000000000003
20
3.5527136788005009e-14
0
LWPOLYLINE
5
107
100
AcDbEntity
8
0
100
AcDbPolyline
90
4
70
1
43
0.0
10
115.5
20
150.00000000000003
10
94
20
150.00000000000003
10
94
20
110.00000000000001
10
115.5
20
110.00000000000001
0
CIRCLE
5
108
100
AcDbEntity
8
0
100
AcDbCircle
10
98.499999999999972
20
106.00000000000001
30
0
40
1.5500000000000003
210
0
220
0
230
1
0
CIRCLE
5
109
100
AcDbEntity
8
0
100
AcDbCircle
10
111.00000000000001
20
106.00000000000001
30
0
40
1.5500000000000003
210
0
220
0
230
1
0
CIRCLE
5
110
100
AcDbEntity
8
0
100
AcDbCircle
10
98.499999999999972
20
154.00000000000003
30
0
40
1.5500000000000003
210
0
220
0
230
1
0
CIRCLE
5
111
100
AcDbEntity
8
0
100
AcDbCircle
10
111.00000000000001
20
154.00000000000003
30
0
40
1.5500000000000003
210
0
220
0
230
1
0
CIRCLE
5
112
100
AcDbEntity
8
0
100
AcDbCircle
10
245.00000000000003
20
181.04365942364953
30
0
40
5.5
210
0
220
0
230
1
0
CIRCLE
5
113
100
AcDbEntity
8
0
100
AcDbCircle
10
155.25
20
200.00000000000003
30
0
40
8.5
210
0
220
0
230
1
0
CIRCLE
5
114
100
AcDbEntity
8
0
100
AcDbCircle
10
245.00000000000003
20
199.04365942364956
30
0
40
1.5500000000000003
210
0
220
0
230
1
0
LWPOLYLINE
5
115
100
AcDbEntity
8
0
100
AcDbPolyline
90
4
70
1
43
0.0
10
237.50000000000003
20
207.04365942364956
10
252.50000000000003
20
207.04365942364956
10
252.50000000000003
20
214.04365942364956
10
237.50000000000003
20
214.04365942364956
0
LWPOLYLINE
5
116
100
AcDbEntity
8
0
100
AcDbPolyline
90
4
70
1
43
0.0
10
190.00000000000003
20
225.00000000000003
10
93.999999999999986
20
225.00000000000003
10
93.999999999999986
20
180.00000000000003
10
190.00000000000003
20
180.00000000000003
0
LWPOLYLINE
5
117
100
AcDbEntity
8
0
100
AcDbPolyline
90
4
70
1
43
0.0
10
290.00000000000006
20
221.04365942364953
10
200.00000000000003
20
221.04365942364953
10
200.00000000000003
20
166.04365942364953
10
290.00000000000006
20
166.04365942364953
0
CIRCLE
5
118
100
AcDbEntity
8
0
100
AcDbCircle
10
128.75
20
200.00000000000003
30
0
40
8.5
210
0
220
0
230
1
0
LWPOLYLINE
5
119
100
AcDbEntity
8
0
100
AcDbPolyline
90
4
70
1
43
0.0
10
284
20
-3.024257736310783e-14
10
194.00000000000003
20
-1.7763568394002505e-14
10
194.00000000000003
20
144.99999999999997
10
284
20
144.99999999999997
0
LINE
5
120
100
AcDbEntity
8
0
100
AcDbLine
10
83.999999999999986
20
218
30
0
11
84
21
5.1435165591562251e-15
31
0
0
LWPOLYLINE
5
121
100
AcDbEntity
8
0
100
AcDbPolyline
90
4
70
1
43
0.0
10
38.999999999999993
20
206
10
28.999999999999993
20
206
10
28.999999999999993
20
191.50000000000003
10
38.999999999999993
20
191.50000000000003
0
LINE
5
122
100
AcDbEntity
8
0
100
AcDbLine
10
385
20
218
30
0
11
385
21
5.1435165591562251e-15
31
0
0
LINE
5
123
100
AcDbEntity
8
0
100
AcDbLine
10
300.00000000000006
20
173
30
0
11
355
21
173
31
0
0
LINE
5
124
100
AcDbEntity
8
0
100
AcDbLine
10
301.00000000000006
20
0
30
0
11
385
21
5.1435165591562251e-15
31
0
0
LINE
5
125
100
AcDbEntity
8
0
100
AcDbLine
10
385
20
218
30
0
11
300.00000000000006
21
218
31
0
0
ARC
5
126
100
AcDbEntity
8
0
100
AcDbCircle
10
185.7070366996208
20
160.59377169431571
30
0
40
169.74693494669145
210
0
220
0
230
1
100
AcDbArc
50
-40.656412255686398
51
4.1912914507800378
0
LINE
5
127
100
AcDbEntity
8
0
100
AcDbLine
10
300.00000000000006
20
218
30
0
11
300.00000000000006
21
173
31
0
0
ARC
5
128
100
AcDbEntity
8
0
100
AcDbCircle
10
360.00000000000284
20
10.908712114636083
30
0
40
60.000000000002807
210
0
220
0
230
1
100
AcDbArc
50
139.3435877443136
51
190.47531384322929
0
LWPOLYLINE
5
129
100
AcDbEntity
8
0
100
AcDbPolyline
90
4
70
1
43
0.0
10
107.19999999999999
20
52.000000000000021
10
103.99999999999999
20
52.000000000000021
10
103.99999999999999
20
40.000000000000014
10
107.19999999999999
20
40.000000000000014
0
LWPOLYLINE
5
130
100
AcDbEntity
8
0
100
AcDbPolyline
90
4
70
1
43
0.0
10
174.00000000000003
20
52.000000000000021
10
170.80000000000001
20
52.000000000000021
10
170.80000000000001
20
40.000000000000014
10
174.00000000000003
20
40.000000000000014
0
LWPOLYLINE
5
131
100
AcDbEntity
8
0
100
AcDbPolyline
90
4
70
1
43
0.0
10
122.39999999999998
20
52.000000000000021
10
119.19999999999999
20
52.000000000000021
10
119.19999999999999
20
40.000000000000014
10
122.39999999999998
20
40.000000000000014
0
LWPOLYLINE
5
132
100
AcDbEntity
8
0
100
AcDbPolyline
90
4
70
1
43
0.0
10
158.80000000000001
20
52.000000000000021
10
155.60000000000002
20
52.000000000000021
10
155.60000000000002
20
40.000000000000014
10
158.80000000000001
20
40.000000000000014
0
LWPOLYLINE
5
133
100
AcDbEntity
8
0
100
AcDbPolyline
90
4
70
1
43
0.0
10
174.00000000000003
20
87.000000000000028
10
174.00000000000003
20
99.000000000000043
10
170.80000000000001
20
99.000000000000043
10
170.80000000000001
20
87.000000000000028
0
LWPOLYLINE
5
134
100
AcDbEntity
8
0
100
AcDbPolyline
90
4
70
1
43
0.0
10
103.99999999999999
20
87.000000000000028
10
107.19999999999999
20
87.000000000000028
10
107.19999999999999
20
99.000000000000043
10
103.99999999999999
20
99.000000000000043
0
LWPOLYLINE
5
135
100
AcDbEntity
8
0
100
AcDbPolyline
90
4
70
1
43
0.0
10
155.60000000000002
20
99.000000000000043
10
155.60000000000002
20
87.000000000000028
10
158.80000000000001
20
87.000000000000028
10
158.80000000000001
20
99.000000000000043
0
LWPOLYLINE
5
136
100
AcDbEntity
8
0
100
AcDbPolyline
90
4
70
1
43
0.0
10
122.39999999999998
20
87.000000000000028
10
122.39999999999998
20
99.000000000000043
10
119.19999999999999
20
99.000000000000043
10
119.19999999999999
20
87.000000000000028
0
LWPOLYLINE
5
137
100
AcDbEntity
8
0
100
AcDbPolyline
90
4
70
1
43
0.0
10
140.59999999999999
20
99.000000000000028
10
137.39999999999998
20
99.000000000000028
10
137.39999999999998
20
87.000000000000028
10
140.59999999999999
20
87.000000000000028
0
LWPOLYLINE
5
138
100
AcDbEntity
8
0
100
AcDbPolyline
90
4
70
1
43
0.0
10
140.59999999999999
20
52.000000000000021
10
137.39999999999998
20
52.000000000000021
10
137.39999999999998
20
40.000000000000014
10
140.59999999999999
20
40.000000000000014
0
ENDSEC
0
SECTION
2
OBJECTS
0
DICTIONARY
5
C
100
AcDbDictionary
3
ACAD_GROUP
350
D
3
ACAD_MLINESTYLE
350
17
0
DICTIONARY
5
D
100
AcDbDictionary
0
DICTIONARY
5
1A
330
C
100
AcDbDictionary
0
DICTIONARY
5
17
100
AcDbDictionary
0
ENDSEC
0
EOF
